<svg width="160" height="35" viewBox="0 0 160 35" fill="none" xmlns="http://www.w3.org/2000/svg">
<g clip-path="url(#clip0_4_2)">
<path fill-rule="evenodd" clip-rule="evenodd" d="M113.384 8.01446L119.709 15.252C120.097 15.6962 120.097 16.4162 119.709 16.8604L113.384 24.0979C112.996 24.5421 112.367 24.5421 111.979 24.0979C111.591 23.6538 111.591 22.9337 111.979 22.4896L116.607 17.1935H99.13V14.9189H116.607L111.979 9.62281C111.591 9.17868 111.591 8.4586 111.979 8.01446C112.367 7.57033 112.996 7.57033 113.384 8.01446Z" fill="#EFC224"/>
<path d="M2.97516 14.9189H-1V17.1934H2.97516V14.9189Z" fill="#EFC224"/>
<path d="M10.975 8.4C12.4083 8.4 13.55 8.525 14.4 8.775C15.25 9.00833 15.8667 9.41667 16.25 10C16.6333 10.5833 16.825 11.3917 16.825 12.425C16.825 13.2417 16.75 13.9583 16.6 14.575C16.45 15.175 16.175 15.6667 15.775 16.05C15.375 16.4167 14.8 16.6583 14.05 16.775V16.875C15.2667 17.0583 16.1 17.5 16.55 18.2C17.0167 18.8833 17.2583 19.8833 17.275 21.2C17.2917 22.4167 17.1 23.4083 16.7 24.175C16.3 24.925 15.6417 25.475 14.725 25.825C13.825 26.175 12.6083 26.35 11.075 26.35C10.0417 26.35 8.99167 26.3 7.925 26.2C6.85833 26.1167 5.825 26.0083 4.825 25.875L4.975 22.525C5.70833 22.575 6.33333 22.6083 6.85 22.625C7.38333 22.6417 7.88333 22.6583 8.35 22.675C8.81667 22.675 9.29167 22.675 9.775 22.675C10.525 22.675 11.1083 22.625 11.525 22.525C11.9417 22.425 12.2333 22.225 12.4 21.925C12.5667 21.6083 12.65 21.1583 12.65 20.575C12.65 20.075 12.5917 19.675 12.475 19.375C12.3583 19.075 12.1333 18.8583 11.8 18.725C11.4833 18.575 11.0083 18.5083 10.375 18.525L7.075 18.55V15.6H10.375C10.8583 15.6 11.2333 15.5583 11.5 15.475C11.7833 15.375 11.9917 15.25 12.125 15.1C12.2583 14.9333 12.3417 14.7333 12.375 14.5C12.4083 14.25 12.425 13.9833 12.425 13.7C12.425 13.2333 12.3583 12.8833 12.225 12.65C12.0917 12.4167 11.8583 12.2583 11.525 12.175C11.2083 12.0917 10.75 12.05 10.15 12.05C9.25 12.05 8.38333 12.0583 7.55 12.075C6.71667 12.075 5.98333 12.075 5.35 12.075L5.2 8.875C6.16667 8.70833 7.13333 8.59167 8.1 8.525C9.06667 8.44167 10.025 8.4 10.975 8.4ZM23.9061 13.225C24.8227 13.225 25.6894 13.3583 26.5061 13.625C27.3227 13.8917 28.0144 14.35 28.5811 15L28.2561 16.875C27.8227 16.7417 27.4144 16.6167 27.0311 16.5C26.6644 16.3667 26.1977 16.3 25.6311 16.3C25.2144 16.3 24.8727 16.375 24.6061 16.525C24.3561 16.675 24.1644 16.9917 24.0311 17.475C23.9144 17.9417 23.8561 18.6583 23.8561 19.625C23.8561 20.4917 23.9144 21.1417 24.0311 21.575C24.1477 21.9917 24.3311 22.275 24.5811 22.425C24.8477 22.5583 25.1727 22.625 25.5561 22.625C25.9561 22.625 26.2894 22.5917 26.5561 22.525C26.8394 22.4417 27.1061 22.3333 27.3561 22.2C27.6061 22.05 27.8811 21.8833 28.1811 21.7L28.4811 23.7C28.0811 24.4333 27.4894 25.05 26.7061 25.55C25.9227 26.05 24.9061 26.3 23.6561 26.3C22.0394 26.3 20.8894 25.725 20.2061 24.575C19.5227 23.4083 19.1811 21.7667 19.1811 19.65C19.1811 17.9667 19.3561 16.6667 19.7061 15.75C20.0727 14.8167 20.6061 14.1667 21.3061 13.8C22.0061 13.4167 22.8727 13.225 23.9061 13.225ZM32.2811 8.5V26H28.6811L28.2311 23.65L27.7561 23.325V15.35L27.9061 15.025C27.8561 14.5083 27.8144 13.9583 27.7811 13.375C27.7644 12.7917 27.7561 12.2167 27.7561 11.65V8.5H32.2811ZM47.4377 8.45C48.3044 8.45 49.0377 8.475 49.6377 8.525C50.2544 8.575 50.8127 8.64167 51.3127 8.725C51.8294 8.80833 52.3544 8.925 52.8877 9.075L52.5377 12.525C51.971 12.4917 51.446 12.475 50.9627 12.475C50.4794 12.4583 49.9627 12.45 49.4127 12.45C48.8627 12.4333 48.2044 12.425 47.4377 12.425C46.7544 12.425 46.2127 12.5667 45.8127 12.85C45.4294 13.1333 45.1627 13.6333 45.0127 14.35C44.8627 15.0667 44.7877 16.075 44.7877 17.375C44.7877 18.675 44.8627 19.6833 45.0127 20.4C45.1627 21.1167 45.4294 21.6167 45.8127 21.9C46.2127 22.1833 46.7544 22.325 47.4377 22.325C48.6544 22.325 49.6627 22.3083 50.4627 22.275C51.2794 22.2417 52.096 22.1833 52.9127 22.1L53.2627 25.525C52.4294 25.8083 51.571 26.0083 50.6877 26.125C49.821 26.2417 48.7377 26.3 47.4377 26.3C45.5877 26.3 44.1044 26.0167 42.9877 25.45C41.8877 24.8667 41.0877 23.925 40.5877 22.625C40.1044 21.325 39.8627 19.575 39.8627 17.375C39.8627 15.175 40.1044 13.425 40.5877 12.125C41.0877 10.825 41.8877 9.89167 42.9877 9.325C44.1044 8.74167 45.5877 8.45 47.4377 8.45ZM62.0297 13.225C63.1464 13.225 64.088 13.375 64.8547 13.675C65.6214 13.975 66.2047 14.475 66.6047 15.175C67.0047 15.875 67.2047 16.8417 67.2047 18.075V26H63.5797L62.9547 23.325L62.6547 22.875V18.05C62.638 17.5333 62.5047 17.1667 62.2547 16.95C62.0214 16.7167 61.588 16.6 60.9547 16.6C60.3047 16.6 59.5047 16.6167 58.5547 16.65C57.6047 16.6667 56.613 16.7083 55.5797 16.775L55.1797 13.85C55.7964 13.7333 56.5214 13.6333 57.3547 13.55C58.188 13.45 59.013 13.375 59.8297 13.325C60.663 13.2583 61.3964 13.225 62.0297 13.225ZM65.4047 18.375L65.3797 20.675H60.0547C59.688 20.6917 59.413 20.7917 59.2297 20.975C59.0464 21.1417 58.9547 21.375 58.9547 21.675V22.15C58.9547 22.4667 59.0547 22.7167 59.2547 22.9C59.4714 23.0667 59.788 23.15 60.2047 23.15C60.6214 23.15 61.063 23.0583 61.5297 22.875C61.9964 22.6917 62.4547 22.4417 62.9047 22.125C63.3547 21.8083 63.7464 21.4667 64.0797 21.1V22.7C63.9464 22.9667 63.738 23.3 63.4547 23.7C63.188 24.1 62.838 24.5083 62.4047 24.925C61.9714 25.325 61.4464 25.6583 60.8297 25.925C60.213 26.1917 59.4964 26.325 58.6797 26.325C57.9297 26.325 57.238 26.1917 56.6047 25.925C55.9714 25.6583 55.463 25.2667 55.0797 24.75C54.713 24.2333 54.5297 23.5833 54.5297 22.8V21.55C54.5297 20.55 54.8797 19.775 55.5797 19.225C56.2964 18.6583 57.263 18.375 58.4797 18.375H65.4047ZM82.6043 13.575V26L78.5543 26.05V20.425C78.5543 20.0583 78.571 19.7083 78.6043 19.375C78.6376 19.025 78.6793 18.6417 78.7293 18.225H78.6293C78.5126 18.575 78.3543 18.9417 78.1543 19.325C77.971 19.7083 77.7876 20.0333 77.6043 20.3L73.7293 26H69.7293V13.575H73.7793V19.45C73.7793 19.7667 73.7626 20.075 73.7293 20.375C73.696 20.675 73.6543 21.0083 73.6043 21.375H73.7043C73.821 21.025 73.9626 20.7083 74.1293 20.425C74.296 20.125 74.471 19.8333 74.6543 19.55L78.6293 13.575H82.6043ZM77.6543 8.05H80.4793C80.5793 8.75 80.471 9.41667 80.1543 10.05C79.8376 10.6667 79.3376 11.175 78.6543 11.575C77.9876 11.975 77.1626 12.175 76.1793 12.175C75.2126 12.175 74.3876 11.975 73.7043 11.575C73.021 11.175 72.5126 10.6667 72.1793 10.05C71.8626 9.41667 71.7543 8.75 71.8543 8.05H74.6793C74.6126 8.8 74.7126 9.325 74.9793 9.625C75.246 9.90833 75.646 10.05 76.1793 10.05C76.7126 10.05 77.1043 9.90833 77.3543 9.625C77.621 9.325 77.721 8.8 77.6543 8.05ZM92.8061 13.575V26H88.2811V13.575H92.8061ZM96.7561 13.575V16.975H84.3061V13.575H96.7561Z" fill="white"/>
</g>
<defs>
<clipPath id="clip0_4_2">
<rect width="160" height="35" fill="white"/>
</clipPath>
</defs>
</svg>
