<?xml version="1.0" standalone="no"?>
<!DOCTYPE svg PUBLIC "-//W3C//DTD SVG 20010904//EN"
 "http://www.w3.org/TR/2001/REC-SVG-20010904/DTD/svg10.dtd">
<svg version="1.0" xmlns="http://www.w3.org/2000/svg"
 width="121.000000pt" height="121.000000pt" viewBox="0 0 121.000000 121.000000"
 preserveAspectRatio="xMidYMid meet">
<metadata>
Created by potrace 1.14, written by Peter Selinger 2001-2017
</metadata>
<g transform="translate(0.000000,121.000000) scale(0.100000,-0.100000)"
fill="#000000" stroke="none">
<path d="M454 1190 c-84 -22 -152 -55 -217 -104 -26 -20 -52 -36 -58 -36 -5 0
-7 -4 -4 -10 9 -14 -1 -13 -35 5 -26 14 -95 13 -110 -1 -11 -12 20 -39 45 -39
16 -1 30 -6 33 -13 2 -8 -7 -12 -27 -12 -24 0 -31 -4 -31 -20 0 -14 7 -20 21
-20 30 0 18 -24 -14 -28 -21 -3 -27 -9 -27 -27 0 -13 4 -25 9 -27 5 -1 -1 -39
-14 -83 -58 -202 -6 -419 139 -572 218 -232 567 -256 811 -57 33 26 69 59 80
72 48 58 98 153 119 227 20 69 25 96 28 150 1 6 -2 41 -6 79 -25 231 -192 436
-416 507 -92 30 -233 33 -326 9z"/>
</g>
</svg>
